<svg xmlns="http://www.w3.org/2000/svg" viewBox="0 0 455 173.28"><title>shazam</title><path d="M308.59,46.82L277.52,92.38l19.2-2,0.7,0.95-74.46,82-1.13-.36V105L200,107l17.69-49.22H198.24a37.68,37.68,0,0,1,1.3-3.65c7.62-15.87,15.3-31.71,22.88-47.6C223.61,4,224.9,2.44,228,2.36,254.65,1.65,281.29.8,307.93,0a22.2,22.2,0,0,1,2.71.36l-33,48.54Z" fill="#ed1c24"/><path d="M69.56,60.61Q64.73,62.43,58.09,65L46.78,69.36q0-7.09-3.92-7.09-5.58,0-11.16,6.34-3.92,4.68-3.32,9.05,0.45,2.87,5.73,2.87a41.7,41.7,0,0,0,7.54-.91,56.76,56.76,0,0,1,11.47-1.36q12.67,0,14.79,8.75a26.45,26.45,0,0,1,.6,5.73q0,9.66-7.24,20.82Q51.91,128.21,35,138.16q-8.9,5.28-17.5,5.28a30.34,30.34,0,0,1-15.39-4.38q3.77-9.05,12.07-26.7a17.79,17.79,0,0,0,10.26,3.32,17.56,17.56,0,0,0,5-.75,39.9,39.9,0,0,0,8.9-3.47q6-3.32,6-6.79,0-3.77-6.19-3.77a63.83,63.83,0,0,0-12.3,1.74,63.68,63.68,0,0,1-12.3,1.74q-5.58,0-8.6-2.11Q-0.9,98.33.16,90q2-16.75,21.57-38.77Q41.8,28.63,56.28,27.57q14-.91,14,21.12A106.85,106.85,0,0,1,69.56,60.61Z" fill="#ed1c24"/><path d="M80.23,33.91l27.91-4.83Q100.61,58,95.94,81.68L108.44,79l7.69-45.12L144,29.08q-16,61.71-20.22,104.86l-25.95,6.64,6.94-41L92,102.26q-2.87,18.56-4.07,31.68L62,140.58Z" fill="#ed1c24"/><path d="M117.51,142.39A976.93,976.93,0,0,0,153.42,33.31l45.86-7.69q-7.85,45.71-7.09,108.17l-32,7.39,2.26-18.86-10.11,2-3.17,13.28ZM164.89,102l6.93-57h-0.15l-14.18,58.39Z" fill="#ed1c24"/><path d="M278.86,142.39A976.68,976.68,0,0,0,314.77,33.31l45.87-7.69q-7.85,45.71-7.09,108.17l-32,7.39,2.26-18.86-10.11,2-3.17,13.28ZM326.25,102l6.93-57H333l-14.18,58.39Z" fill="#ed1c24"/><path d="M344.26,141.33a614.84,614.84,0,0,0,31.08-105l36.06-5.88-5.19,55.35,14.12-51.13,34.67-6q-6.19,49.19-6.19,88.71v15.54L418,138.31l5.43-66.08L403.71,145.4l-16.6,2.26,10-92.94-21.42,82.38Z" fill="#ed1c24"/></svg>